# xmcd CD database file
#
# Track frame offsets:
#	225
#	18322
#	39112
#	50835
#	75361
#	93662
#	111745
#	134700
#	155549
#	173238
#	190420
#	214420
#	231555
#	248376
#	263625
#	278768
#
# Disc length: 3973 seconds
#
# Revision: 3
# Processed by: cddbd v1.4PL0 Copyright (c) Steve Scherf et al.
# Submitted via: CDex 1.50Beta7
#
DISCID=e60f8210
DTITLE=Earl Reeves Quartet - Jazzy Soul Moods
DYEAR=1900
DGENRE=Jazz
TTITLE0=Piano In The Dark
TTITLE1=One Day I will Fly Away
TTITLE2=Moonlighting
TTITLE3=Thats The Way Of The World
TTITLE4=Wishing On A Star
TTITLE5=Easier Said Than Done
TTITLE6=Harvest For The World
TTITLE7=The Sun Died In Your Arms
TTITLE8=Give Me A Reason
TTITLE9=Rainy Night In Georgia
TTITLE10=Babylon Sister
TTITLE11=Sweet Freedom
TTITLE12=Lovely Day
TTITLE13=If You Dont Know Me By Now
TTITLE14=Turn Your Love Around
TTITLE15=Ya Mo Be There
EXTD=
EXTT0=
EXTT1=
EXTT2=
EXTT3=
EXTT4=
EXTT5=
EXTT6=
EXTT7=
EXTT8=
EXTT9=
EXTT10=
EXTT11=
EXTT12=
EXTT13=
EXTT14=
EXTT15=
PLAYORDER=
